<svg xmlns="http://www.w3.org/2000/svg" xmlns:xlink="http://www.w3.org/1999/xlink" version="1.1" x="0px" y="0px" viewBox="0 0 100 100" enable-background="new 0 0 100 100" xml:space="preserve"><path d="M79.376,46.434C79.16,30.391,66.095,17.449,50,17.449c-16.095,0-29.16,12.941-29.376,28.984  c-9.563,0.383-17.203,8.539-17.203,18.195C3.421,74.406,11.252,83,20.982,83h14c3.177,0,11.25-5,11.25-21H40.08l10-12.277L60.08,62  h-6.348c0,17,7.931,21,11.25,21h14c9.747,0,17.597-8.582,17.597-18.371C96.579,54.973,88.938,46.816,79.376,46.434z"></path></svg>